<?xml version="1.0" encoding="UTF-8" standalone="no"?>
<!-- Created with Inkscape (http://www.inkscape.org/) -->

<svg
   width="529.74414mm"
   height="105.83333mm"
   viewBox="0 0 529.74414 105.83333"
   version="1.1"
   id="svg22246"
   inkscape:version="1.1.2 (0a00cf5339, 2022-02-04, custom)"
   sodipodi:docname="mark-and-type-simple-noborder.svg"
   xmlns:inkscape="http://www.inkscape.org/namespaces/inkscape"
   xmlns:sodipodi="http://sodipodi.sourceforge.net/DTD/sodipodi-0.dtd"
   xmlns="http://www.w3.org/2000/svg"
   xmlns:svg="http://www.w3.org/2000/svg">

  <g
     inkscape:label="Layer 1"
     inkscape:groupmode="layer"
     id="layer1"
     transform="translate(186.28443,-29.413231)">
    <g
       id="g1032"
       transform="matrix(0.26458333,0,0,0.26458333,-186.28309,29.413231)">
      <path
         fill="#477ab5"
         d="m 373.2,100 a 200,200 -60 1 0 0,200 l -43.3,-25 a 150,150 -60 1 1 0,-150 z"
         id="path1014" />
      <path
         fill="#a4e5f5"
         d="m 113.4,150 86.6,-50 86.6,50 v 12 L 200,208 113.4,162 Z"
         id="path1016" />
      <path
         fill="#568a97"
         d="m 200,200 86.6,-50 V 250 L 200,300 Z"
         id="path1018" />
      <path
         fill="#70b7c9"
         d="M 200,200 V 300 L 113.4,250 V 150 Z"
         id="path1020" />
    </g>
    <path
       d="m 328.84931,68.755413 c 4.41697,0 7.94908,1.32366 10.59634,3.97097 2.67603,2.64727 4.01405,6.179362 4.01405,10.596272 v 25.465565 h -9.99203 V 86.322365 c 0,-2.40266 -0.69776,-4.30896 -2.09329,-5.7189 -1.36684,-1.4531 -3.21562,-2.17965 -5.54634,-2.17965 -2.44583,0 -4.43128,0.73373 -5.95636,2.2012 -1.52507,1.46752 -2.2876,3.417 -2.2876,5.84844 v 22.314765 h -9.97047 V 86.322365 c 0,-2.37387 -0.71215,-4.28017 -2.13646,-5.7189 -1.39558,-1.4531 -3.26595,-2.17965 -5.6111,-2.17965 -2.41707,0 -4.38814,0.74811 -5.91321,2.24434 -1.52506,1.46754 -2.28759,3.40264 -2.28759,5.8053 v 22.314765 h -9.97038 V 69.683423 h 9.97038 v 4.03565 c 2.94943,-3.30911 6.81245,-4.96366 11.58905,-4.96366 2.71921,0 5.12909,0.56114 7.22962,1.68341 2.11496,1.09341 3.7983,2.65441 5.05001,4.68299 3.22273,-4.24427 7.6684,-6.3664 13.33702,-6.3664 z m -70.2246,40.960787 c -5.52475,0 -9.94166,-1.49627 -13.25074,-4.48882 -3.32348,-3.02131 -4.98522,-7.028185 -4.98522,-12.020635 V 69.683423 h 9.97047 v 22.142152 c 0,2.48901 0.74816,4.48886 2.24447,5.99953 1.525,1.49629 3.53201,2.244425 6.02102,2.244425 2.48901,0 4.48885,-0.748135 5.99952,-2.244425 1.52507,-1.49631 2.2876,-3.49615 2.2876,-5.99953 V 69.683423 h 9.97046 v 23.523322 c 0,4.96361 -1.66895,8.956105 -5.00684,11.977485 -3.32343,3.02131 -7.72596,4.53197 -13.20758,4.53197 z M 234.99356,62.130057 c -1.19417,1.194176 -2.6761,1.791264 -4.44577,1.791264 -1.7696,0 -3.26587,-0.597088 -4.4888,-1.791264 -1.19415,-1.194116 -1.79122,-2.668798 -1.79122,-4.424047 0,-1.7409 0.59707,-3.215608 1.79122,-4.424123 1.22293,-1.194143 2.7192,-1.791214 4.4888,-1.791214 1.76967,0 3.2516,0.597071 4.44577,1.791214 1.22289,1.194115 1.83433,2.668823 1.83433,4.424123 0,1.740831 -0.61144,3.215514 -1.83433,4.424047 z m -9.43092,46.658163 V 69.683423 h 9.97039 V 108.76671 Z M 200.22651,59.756193 v 9.92723 h -2.56819 c -4.51041,0 -8.2655,1.68335 -11.26525,5.05 v -5.05 h -9.94886 v 39.083287 h 9.94886 V 90.207005 c 0,-3.51772 0.99275,-6.30165 2.95664,-8.3519 2.00699,-2.05017 4.74779,-3.06443 8.30861,-3.06443 h 2.56819 v 17.86909 c 0,4.035645 1.10063,7.229585 3.30188,9.581945 2.22285,2.33076 5.52473,3.47448 9.8841,3.47448 2.80555,0 5.22257,-0.56118 7.29435,-1.68327 v -9.279855 c -1.89908,0.88483 -3.60398,1.316465 -5.13619,1.316465 -3.60411,0 -5.39529,-1.661745 -5.39529,-5.006825 v -16.25052 h 10.53148 v -9.128762 h -10.50991 v -9.92723 z m -34.68074,44.068397 c -4.01401,3.91336 -9.0064,5.87005 -14.97717,5.87005 -5.9708,0 -10.97759,-1.95669 -15.02036,-5.87005 -4.01409,-3.913315 -6.02114,-8.783425 -6.02114,-14.610335 0,-5.81247 2.00705,-10.68259 6.02114,-14.610352 4.04277,-3.91333 9.04956,-5.86999 15.02036,-5.86999 5.97077,0 10.96316,1.95666 14.97717,5.86999 4.0141,3.913362 6.02115,8.783482 6.02115,14.610352 0,5.81251 -2.00705,10.68262 -6.02115,14.610335 z m -14.97717,-3.7767 c 3.09326,0 5.65419,-1.021485 7.68278,-3.064465 2.02863,-2.07179 3.04294,-4.65432 3.04294,-7.74759 0,-3.09329 -1.01431,-5.66142 -3.04294,-7.70439 -2.02859,-2.07175 -4.58952,-3.10763 -7.68278,-3.10763 -3.06453,0 -5.62548,1.03588 -7.68286,3.10763 -2.05742,2.07178 -3.07892,4.63991 -3.06449,7.70439 0,3.06449 1.0215,5.63264 3.06449,7.70443 2.04301,2.07175 4.60396,3.107625 7.68286,3.107625 z m -41.28446,9.6683 c -6.34485,0 -11.83363,-1.99984 -16.46632,-5.99952 l 4.8341,-6.582195 c 3.32349,2.891895 7.12895,4.337845 11.41637,4.337845 2.04303,0 3.70477,-0.32374 4.98522,-0.97122 1.29485,-0.647395 1.94228,-1.546595 1.94228,-2.697605 0,-0.61865 -0.18706,-1.16537 -0.56118,-1.64016 -0.3453,-0.47471 -0.92081,-0.88474 -1.72653,-1.23009 -0.80564,-0.34531 -1.58254,-0.63304 -2.33071,-0.8632 -0.71937,-0.23002 -1.74086,-0.48913 -3.06445,-0.77733 -0.89206,-0.20174 -1.60424,-0.36732 -2.13654,-0.49673 -0.51769,-0.1294 -1.24426,-0.31646 -2.1797,-0.56118 -0.89201,-0.27352 -1.62577,-0.52528 -2.2013,-0.75528 -0.54671,-0.23003 -1.20851,-0.53219 -1.9854,-0.90647 -0.77693,-0.40294 -1.41717,-0.7986 -1.9207,-1.18697 -0.47472,-0.40293 -0.9855,-0.8921 -1.53233,-1.46753 -0.51768,-0.57547 -0.94209,-1.18692 -1.27323,-1.83433 -0.30234,-0.64747 -0.55411,-1.39562 -0.75531,-2.24446 -0.2012,-0.84882 -0.3018,-1.76241 -0.3018,-2.74076 0,-2.67609 0.73378,-4.963702 2.20134,-6.862822 1.46747,-1.89913 3.37377,-3.28748 5.71888,-4.16507 2.38831,-0.87766 5.07157,-1.31649 8.04979,-1.31649 5.76933,0 10.82648,1.71209 15.17145,5.13628 l -4.83418,6.668522 c -3.19395,-2.40267 -6.5606,-3.604 -10.09993,-3.604 -1.79842,0 -3.27311,0.28774 -4.42408,0.86321 -1.15101,0.57555 -1.72651,1.41003 -1.72651,2.50345 0,0.61864 0.17265,1.16534 0.51795,1.64011 0.34529,0.44589 0.9208,0.84875 1.72651,1.20856 0.80567,0.31649 1.58259,0.58985 2.33077,0.82008 0.74813,0.2012 1.78402,0.43855 3.10765,0.71206 1.15097,0.24473 2.07174,0.45327 2.76233,0.62562 0.69061,0.17234 1.60419,0.4457 2.74076,0.82009 1.12225,0.37409 2.03588,0.74817 2.74089,1.12224 0.71935,0.3741 1.49626,0.88484 2.33074,1.53223 0.84883,0.61865 1.51064,1.29485 1.98541,2.0286 0.47473,0.71937 0.87759,1.60421 1.20858,2.65451 0.34529,1.05023 0.51794,2.18684 0.51794,3.40981 0,2.67601 -0.74815,4.999535 -2.24445,6.970585 -1.49627,1.97109 -3.49612,3.44581 -5.99954,4.42416 -2.48901,0.94956 -5.32332,1.42434 -8.50291,1.42434 z M 78.57435,55.871587 H 89.17058 V 108.78822 H 78.42318 L 54.33878,74.042793 V 108.78822 H 43.74255 V 55.871587 H 54.48993 L 78.57435,90.617025 Z M 22.01048,107.62289 c -3.43862,1.39553 -7.12178,2.0933 -11.04949,2.0933 -3.92774,0 -7.61091,-0.69777 -11.04951,-2.0933 -3.43857,-1.42436 -6.39519,-3.34508 -8.86984,-5.76217 -2.47459,-2.417065 -4.42407,-5.316105 -5.84843,-8.697115 -1.42431,-3.39544 -2.13646,-7.01385 -2.13646,-10.85523 0,-3.84143 0.71215,-7.452662 2.13646,-10.833692 1.42436,-3.39543 3.37384,-6.301689 5.84843,-8.718767 2.47465,-2.417065 5.43127,-4.323374 8.86984,-5.718927 3.45297,-1.395588 7.13614,-2.093382 11.04951,-2.093382 5.2226,0 9.96321,1.201337 14.22184,3.604011 4.27309,2.373953 7.61817,5.654258 10.03524,9.840915 2.44583,4.17239 3.66875,8.819522 3.66875,13.941372 0,3.84143 -0.72656,7.45987 -2.17968,10.85532 -1.42437,3.3666 -3.37384,6.26565 -5.84843,8.697135 -2.44587,2.41707 -5.40249,4.33776 -8.86985,5.76206 z M -1.21072,94.587985 c 3.26591,3.26591 7.32315,4.89886 12.17171,4.89886 4.84855,0 8.8914,-1.63295 12.12854,-4.89886 3.26591,-3.29473 4.89886,-7.38793 4.89886,-12.27961 0,-4.89172 -1.63295,-8.970542 -4.89886,-12.236472 -3.25155,-3.26594 -7.2944,-4.898912 -12.12854,-4.898912 -4.84856,0 -8.9058,1.632972 -12.17171,4.898912 -3.23713,3.26593 -4.8557,7.344752 -4.8557,12.236472 0,4.89168 1.62574,8.98488 4.87723,12.27961 z m -39.32067,15.128205 c -3.91338,0 -7.59655,-0.69777 -11.04951,-2.0933 -3.43854,-1.42436 -6.39512,-3.34508 -8.86973,-5.76217 -2.46026,-2.431425 -4.40257,-5.330465 -5.82693,-8.697115 -1.42436,-3.39544 -2.13654,-7.01385 -2.13654,-10.85523 0,-3.84143 0.71218,-7.445482 2.13654,-10.812152 1.42436,-3.39537 3.37385,-6.301585 5.84845,-8.718656 2.46026,-2.431499 5.41687,-4.345025 8.86982,-5.740578 3.43855,-1.395588 7.12173,-2.093382 11.04952,-2.093382 4.89169,0 9.38772,1.064658 13.4881,3.193973 4.1004,2.129369 7.38074,5.035623 9.84101,8.718763 l -9.12886,5.65423 c -1.55383,-2.30202 -3.56085,-4.10044 -6.02104,-5.39526 -2.47466,-1.294881 -5.19389,-1.942322 -8.15768,-1.942322 -4.84851,0 -8.90574,1.632972 -12.17171,4.898912 -3.23712,3.26593 -4.85568,7.344752 -4.85568,12.236472 0,4.89168 1.62576,8.98488 4.87729,12.27961 3.2659,3.26591 7.32314,4.89886 12.17171,4.89886 2.96379,0 5.68298,-0.64744 8.15758,-1.94232 2.47466,-1.29487 4.48171,-3.09327 6.02114,-5.3952 l 9.12885,5.65417 c -2.47467,3.697525 -5.75501,6.603775 -9.841,8.718735 -4.08602,2.12931 -8.58208,3.19396 -13.48818,3.19396 z"
       id="path18792"
       style="display:inline;fill:#0b2228;fill-opacity:1;stroke:none;stroke-width:2.15811"
       inkscape:transform-center-x="-48.350807"
       inkscape:transform-center-y="-28.184526"
       sodipodi:nodetypes="ccsccscsssccscscscccccsccccscsccscscsccscsscscscscsccccccccscccccscscscsccsscccccccscscssscscscsscsscccscscscccccccccssccsccsssccccscccccsscccccccccccccccscscscccsccscccccscscscsccscccscccsccccscscsccccss" />
  </g>
</svg>
