<svg xmlns="http://www.w3.org/2000/svg" viewBox="0 0 190.851 26.98">
   <path d="M 184.08 8 q 3.07 0 4.91 1.84 1.86 1.84 1.86 4.91 v 11.8 h -4.63 v -10.41 q 0 -1.67 -0.97 -2.65 -0.95 -1.01 -2.57 -1.01 -1.7 0 -2.76 1.02 -1.06 1.02 -1.06 2.71 v 10.34 h -4.62 v -10.41 q 0 -1.65 -0.99 -2.65 -0.97 -1.01 -2.6 -1.01 -1.68 0 -2.74 1.04 -1.06 1.02 -1.06 2.69 v 10.34 h -4.62 V 8.43 h 4.62 v 1.87 Q 168.9 8 172.22 8 q 1.89 0 3.35 0.78 1.47 0.76 2.34 2.17 2.24 -2.95 6.18 -2.95 z M 151.54 26.98 q -3.84 0 -6.14 -2.08 -2.31 -2.1 -2.31 -5.57 V 8.43 h 4.62 v 10.26 q 0 1.73 1.04 2.78 1.06 1.04 2.79 1.04 t 2.78 -1.04 q 1.06 -1.04 1.06 -2.78 V 8.43 h 4.62 V 19.33 q 0 3.45 -2.32 5.55 -2.31 2.1 -6.12 2.1 z M 140.59 4.93 q -0.83 0.83 -2.06 0.83 -1.23 0 -2.08 -0.83 -0.83 -0.83 -0.83 -2.05 0 -1.21 0.83 -2.05 0.85 -0.83 2.08 -0.83 1.23 0 2.06 0.83 0.85 0.83 0.85 2.05 0 1.21 -0.85 2.05 z m -4.37 21.62 V 8.43 h 4.62 v 18.11 z M 124.48 3.83 v 4.6 h -1.19 c -2.09 0 -3.83 0.78 -5.22 2.34 V 8.43 h -4.61 v 18.11 h 4.61 V 17.94 c 0 -1.63 0.46 -2.92 1.37 -3.87 0.93 -0.95 2.2 -1.42 3.85 -1.42 h 1.19 v 8.28 c 0 1.87 0.51 3.35 1.53 4.44 1.03 1.08 2.56 1.61 4.58 1.61 1.3 0 2.42 -0.26 3.38 -0.78 v -4.3 c -0.88 0.41 -1.67 0.61 -2.38 0.61 -1.67 0 -2.5 -0.77 -2.5 -2.32 v -7.53 h 4.88 V 8.43 h -4.87 V 3.83 z m -16.07 20.42 q -2.79 2.72 -6.94 2.72 t -6.96 -2.72 q -2.79 -2.72 -2.79 -6.77 0 -4.04 2.79 -6.77 2.81 -2.72 6.96 -2.72 4.15 0 6.94 2.72 t 2.79 6.77 q 0 4.04 -2.79 6.77 z m -6.94 -1.75 q 2.15 0 3.56 -1.42 1.41 -1.44 1.41 -3.59 0 -2.15 -1.41 -3.57 -1.41 -1.44 -3.56 -1.44 -2.13 0 -3.56 1.44 t -1.42 3.57 q 0 2.13 1.42 3.57 1.42 1.44 3.56 1.44 z M 82.34 26.98 q -4.41 0 -7.63 -2.78 l 2.24 -3.05 q 2.31 2.01 5.29 2.01 1.42 0 2.31 -0.45 0.9 -0.45 0.9 -1.25 0 -0.43 -0.26 -0.76 -0.24 -0.33 -0.8 -0.57 -0.56 -0.24 -1.08 -0.4 -0.5 -0.16 -1.42 -0.36 -0.62 -0.14 -0.99 -0.23 -0.36 -0.09 -1.01 -0.26 -0.62 -0.19 -1.02 -0.35 -0.38 -0.16 -0.92 -0.42 -0.54 -0.28 -0.89 -0.55 -0.33 -0.28 -0.71 -0.68 -0.36 -0.4 -0.59 -0.85 -0.21 -0.45 -0.35 -1.04 -0.14 -0.59 -0.14 -1.27 0 -1.86 1.02 -3.18 1.02 -1.32 2.65 -1.93 Q 80.6 8 82.67 8 q 4.01 0 7.03 2.38 l -2.24 3.09 q -2.22 -1.67 -4.68 -1.67 -1.25 0 -2.05 0.4 -0.8 0.4 -0.8 1.16 0 0.43 0.24 0.76 0.24 0.31 0.8 0.56 0.56 0.22 1.08 0.38 0.52 0.14 1.44 0.33 0.8 0.17 1.28 0.29 t 1.27 0.38 q 0.78 0.26 1.27 0.52 0.5 0.26 1.08 0.71 0.59 0.43 0.92 0.94 0.33 0.5 0.56 1.23 0.24 0.73 0.24 1.58 0 1.86 -1.04 3.23 -1.04 1.37 -2.78 2.05 -1.73 0.66 -3.94 0.66 z M 68.11 2.03 h 4.91 v 24.52 h -4.98 l -11.16 -16.1 v 16.1 h -4.91 V 2.03 h 4.98 l 11.16 16.1 z M 41.9 26.01 q -2.39 0.97 -5.12 0.97 t -5.12 -0.97 q -2.39 -0.99 -4.11 -2.67 -1.72 -1.68 -2.71 -4.03 -0.99 -2.36 -0.99 -5.03 0 -2.67 0.99 -5.02 0.99 -2.36 2.71 -4.04 1.72 -1.68 4.11 -2.65 2.4 -0.97 5.12 -0.97 3.63 0 6.59 1.67 2.97 1.65 4.65 4.56 1.7 2.9 1.7 6.46 0 2.67 -1.01 5.03 -0.99 2.34 -2.71 4.03 -1.7 1.68 -4.11 2.67 z M 31.14 19.97 q 2.27 2.27 5.64 2.27 t 5.62 -2.27 q 2.27 -2.29 2.27 -5.69 t -2.27 -5.67 q -2.26 -2.27 -5.62 -2.27 -3.37 0 -5.64 2.27 -2.25 2.27 -2.25 5.67 0 3.4 2.26 5.69 z m -18.22 7.01 q -2.72 0 -5.12 -0.97 -2.39 -0.99 -4.11 -2.67 Q 1.98 21.65 0.99 19.31 0 16.95 0 14.28 q 0 -2.67 0.99 -5.01 0.99 -2.36 2.71 -4.04 Q 5.41 3.54 7.81 2.57 q 2.39 -0.97 5.12 -0.97 3.4 0 6.25 1.48 2.85 1.48 4.56 4.04 l -4.23 2.62 q -1.08 -1.6 -2.79 -2.5 -1.72 -0.9 -3.78 -0.9 -3.37 0 -5.64 2.27 -2.25 2.27 -2.25 5.67 0 3.4 2.26 5.69 2.27 2.27 5.64 2.27 2.06 0 3.78 -0.9 1.72 -0.9 2.79 -2.5 l 4.23 2.62 q -1.72 2.57 -4.56 4.04 -2.84 1.48 -6.25 1.48 z"/>
</svg>
